<svg xmlns="http://www.w3.org/2000/svg" viewBox="0 0 1440 320"><path fill="#FF9800" fill-opacity="1" d="M0,32L30,74.7C60,117,120,203,180,224C240,245,300,203,360,176C420,149,480,139,540,128C600,117,660,107,720,90.7C780,75,840,53,900,80C960,107,1020,181,1080,224C1140,267,1200,277,1260,272C1320,267,1380,245,1410,234.7L1440,224L1440,320L1410,320C1380,320,1320,320,1260,320C1200,320,1140,320,1080,320C1020,320,960,320,900,320C840,320,780,320,720,320C660,320,600,320,540,320C480,320,420,320,360,320C300,320,240,320,180,320C120,320,60,320,30,320L0,320Z"></path></svg>